<svg width="1093" height="171" viewBox="0 0 1093 171" fill="none" xmlns="http://www.w3.org/2000/svg">
<path d="M1031.03 33.561C1031.03 52.2868 1046.06 67.5684 1064.62 67.5684C1076.29 67.5684 1086.64 61.9156 1092.56 52.7279C1092.83 52.2867 1093 51.7573 1093 51.2253V35.7697H1075.61V45.4869H1083.28V49.1048C1078.95 54.7576 1072.14 57.9396 1064.62 57.9396C1051.45 57.9396 1040.76 46.8961 1040.76 33.561C1040.76 20.1351 1051.45 9.62628 1064.62 9.62628C1071.78 9.62628 1078.06 12.8057 1082.48 17.929L1089.46 11.3055C1083.36 4.41474 1074.43 0 1064.62 0C1046.06 0 1031.03 14.747 1031.03 33.561ZM951.628 5.12331V66.5952H961.35V18.2845L999.011 65.6219C999.894 66.7717 1001.31 67.5684 1002.99 67.5684C1005.82 67.5684 1008.02 65.2715 1008.02 62.4425V1.23537H998.302V49.8134L960.732 1.94133C959.758 0.703328 958.348 0 956.755 0C953.924 0 951.628 2.29433 951.628 5.12331ZM278.877 3.00545L255.805 35.9487L232.819 3.00545C231.85 1.85569 230.52 1.14975 228.928 1.14975C226.101 1.14975 223.893 3.35582 223.893 6.09396V67.5684H233.616V19.5199L255.805 51.7573L277.994 19.6082V67.5684H287.717V6.09396C287.717 3.35582 285.504 1.14975 282.768 1.14975C281.176 1.14975 279.76 1.85569 278.877 3.00545ZM679.094 4.32912L652.048 67.5684H662.921L683.692 19.1669L704.2 67.5684H715.073L688.292 4.32912C687.495 2.38257 685.814 1.23537 683.777 1.23537C681.746 1.23537 679.891 2.38257 679.094 4.32912ZM897.241 67.5684H906.964V2.20865H897.241V67.5684ZM808.821 2.20865V62.3569C808.821 65.1859 811.206 67.5684 814.037 67.5684H857.88V57.8539H818.544V2.20865H808.821ZM754.43 67.5684H764.155V2.20865H754.43V67.5684ZM588.38 2.20865V11.9232H611.361V67.5684H621.084V11.9232H644.068V2.20865H588.38ZM519.406 2.20865C516.577 2.20865 514.192 4.50301 514.192 7.3268V11.9232H523.915H526.913H564.487V2.20865H519.406ZM437.609 2.20865C434.783 2.20865 432.661 4.41472 432.661 7.15286V11.9232H458.206C471.113 11.9232 481.46 22.079 481.46 34.8898C481.369 47.6929 471.202 57.8539 458.206 57.8539H432.661V62.6216C432.661 65.3598 434.869 67.5684 437.7 67.5684H458.206C476.509 67.5684 491.183 53.0835 491.183 34.8898C491.183 16.6936 476.418 2.20865 458.206 2.20865H437.609ZM321.247 2.20865C318.418 2.20865 316.031 4.50301 316.031 7.3268V11.9232H325.756H328.751H366.326V2.20865H321.247ZM169.505 67.5684H179.227V2.20865H169.505V67.5684ZM78.344 2.20865C75.5126 2.20865 73.128 4.50301 73.128 7.3268V11.9232H105.04C111.58 11.9232 116.882 17.4877 116.882 24.0255C116.882 30.4725 111.757 35.5932 105.04 35.5932H73.128V67.5684H82.8508V44.6901H100L115.913 67.5684H126.964L110.432 44.0723C119.802 41.8663 126.605 34.0931 126.605 24.0255C126.605 12.0997 116.973 2.20865 105.04 2.20865H78.344ZM5.21601 2.20865C2.38981 2.20865 0 4.50301 0 7.3268V11.9232H28.9946C36.1536 11.9232 42.167 18.0172 42.167 25.3492C42.167 32.5929 36.3354 38.2457 28.9946 38.2457H0V67.5684H9.72287V47.9603H28.9946C41.6345 47.9603 51.8899 38.0666 51.8899 25.3492C51.8899 12.72 41.6345 2.20865 28.9946 2.20865H5.21601ZM526.913 30.0312H523.915H514.192V39.7458H523.915H524.557H561.835V30.0312H526.913ZM328.751 30.0312H325.756H316.031V39.7458H325.756H326.395H363.676V30.0312H328.751ZM524.557 57.8539H523.915H514.192V62.3569C514.192 65.1859 516.577 67.5684 519.406 67.5684H564.487V57.8539H524.557ZM326.395 57.8539H325.756H316.031V62.3569C316.031 65.1859 318.418 67.5684 321.247 67.5684H366.326V57.8539H326.395ZM708.507 136.993C708.507 155.718 723.534 170.909 742.099 170.909C760.664 170.909 775.598 155.807 775.598 136.993C775.598 118.002 760.306 103.432 742.099 103.432C723.534 103.432 708.507 118.181 708.507 136.993ZM718.229 136.993C718.141 123.567 728.926 112.97 742.099 112.97C755.181 112.97 765.963 123.567 765.875 136.993C765.875 150.421 755.269 161.371 742.099 161.371C728.926 161.371 718.229 150.33 718.229 136.993ZM318.727 123.04C318.727 138.231 334.375 139.466 347.012 140.881C357.361 141.939 366.375 143.177 366.375 151.215C366.375 157.221 359.128 161.192 346.397 161.192C337.557 161.192 329.247 159.253 321.468 155.451L317.402 164.2C326.33 168.703 336.056 171 346.397 171C363.461 171 376.366 163.224 376.366 151.215C376.366 135.495 360.629 133.196 347.192 131.872C338.175 130.899 328.627 130.283 328.627 123.04C328.627 115.972 336.232 112.884 347.633 112.884C355.239 112.884 363.019 114.558 370.001 117.473L373.802 108.729C366.11 105.464 356.738 103.52 347.633 103.52C331.105 103.52 318.727 111.026 318.727 123.04ZM566.932 104.667C564.105 104.667 561.981 106.876 561.981 109.614V114.382H587.531C600.436 114.382 610.782 124.54 610.782 137.348C610.691 150.154 600.526 160.312 587.531 160.312H561.981V165.083C561.981 167.821 564.191 170.027 567.023 170.027H587.531C605.831 170.027 620.505 155.542 620.505 137.348C620.505 119.152 605.743 104.667 587.531 104.667H566.932ZM523.949 104.667V142.03C523.949 152.453 515.46 160.842 505.028 160.842C494.51 160.842 486.021 152.453 486.021 142.03V104.667H476.298V142.03C476.298 157.839 489.206 170.644 505.028 170.644C520.764 170.644 533.672 157.839 533.672 142.03V104.667H523.949ZM397.604 104.667V114.382H420.587V170.027H430.313V114.382H453.294V104.667H397.604ZM659.425 171H669.148V105.64H659.425V171Z" fill="white"/>
</svg>
